# xmcd
#
# Track frame offsets: 
#        150
#        14775
#        29138
#
# Disc length: 641 seconds
#
# Revision: 0
# Processed by: cddbd v1.5.2PL0 Copyright (c) Steve Scherf et al.
# Submitted via: ExactAudioCopy v0.95a1
#
DISCID=26027f03
DTITLE=Siobhan O'Brien - Beautiful Bodies
DYEAR=2006
DGENRE=Celtic
TTITLE0=Beautiful Bodies
TTITLE1=My Man
TTITLE2=Naked
EXTD=
EXTT0=
EXTT1=
EXTT2=
PLAYORDER=
